<svg width="360" height="640" viewBox="0 0 360 640" fill="none" xmlns="http://www.w3.org/2000/svg">
<rect width="360" height="640" fill="#20373E"/>
<g filter="url(#filter0_d_43_131)">
<path d="M113.917 365.4C112.509 365.4 111.277 367.144 110.221 370.632C109.165 374.088 108.637 377.16 108.637 379.848C108.637 385.48 110.109 388.296 113.053 388.296C113.885 388.296 114.605 387.944 115.213 387.24C115.853 386.504 116.301 385.752 116.557 384.984C116.845 384.216 117.181 383.16 117.565 381.816L123.661 382.296C122.829 386.232 121.581 389.24 119.917 391.32C118.285 393.4 115.997 394.44 113.053 394.44C109.597 394.44 106.925 393.144 105.037 390.552C103.181 387.928 102.253 384.6 102.253 380.568C102.253 375.864 103.181 371.288 105.037 366.84C105.933 364.632 107.181 362.824 108.781 361.416C110.413 359.976 112.269 359.256 114.349 359.256C116.909 359.256 118.765 360.104 119.917 361.8C120.493 362.632 120.957 363.48 121.309 364.344C121.693 365.208 121.965 366.312 122.125 367.656C122.413 369.8 122.589 372.104 122.653 374.568L116.461 373.992C116.461 369.864 116.077 367.272 115.309 366.216C114.957 365.672 114.493 365.4 113.917 365.4ZM143.025 392.52L141.921 385.848L134.769 386.136L132.945 395.16L126.225 394.584L134.817 359.784L143.697 360.552L149.985 393.096L143.025 392.52ZM138.801 366.072L135.777 381L141.153 380.808L138.801 366.072ZM155.727 393.432C156.143 385.752 156.351 378.904 156.351 372.888C156.351 366.872 156.335 362.92 156.303 361.032C159.823 359.368 163.487 358.536 167.295 358.536C170.111 358.536 172.463 359.432 174.351 361.224C176.271 363.016 177.231 365.544 177.231 368.808C177.231 372.584 174.559 376.216 169.215 379.704C172.127 383.352 175.103 387.368 178.143 391.752L173.535 395.16C171.519 392.12 167.903 387.16 162.687 380.28C162.591 385.208 162.447 389.832 162.255 394.152L155.727 393.432ZM162.831 377.016C165.199 375.896 167.215 374.52 168.879 372.888C170.543 371.224 171.375 369.72 171.375 368.376C171.375 367.032 170.975 365.992 170.175 365.256C169.407 364.52 168.383 364.152 167.103 364.152C165.823 364.152 164.415 364.424 162.879 364.968C162.879 370.376 162.863 374.392 162.831 377.016ZM183.394 361.08C187.138 359.928 190.514 359.352 193.522 359.352C196.562 359.352 199.138 360.168 201.25 361.8C203.362 363.4 204.418 365.384 204.418 367.752C204.418 371.304 202.434 374.12 198.466 376.2C202.178 377.704 204.034 380.216 204.034 383.736C204.034 386.328 202.674 388.648 199.954 390.696C197.234 392.712 194.386 393.72 191.41 393.72C191.026 393.72 188.29 393.496 183.202 393.048C183.65 386.168 183.874 380.376 183.874 375.672C183.874 370.968 183.714 366.104 183.394 361.08ZM197.938 368.424C197.938 367.464 197.458 366.664 196.498 366.024C195.57 365.352 194.562 365.016 193.474 365.016C192.418 365.016 191.282 365.208 190.066 365.592C190.194 369.432 190.258 372.328 190.258 374.28C191.73 374.152 193.378 373.496 195.202 372.312C197.026 371.096 197.938 369.8 197.938 368.424ZM192.466 387.864C193.522 387.864 194.642 387.448 195.826 386.616C197.01 385.752 197.602 384.776 197.602 383.688C197.602 382.568 196.914 381.592 195.538 380.76C194.162 379.928 192.386 379.416 190.21 379.224C190.146 383 190.082 385.832 190.018 387.72C190.594 387.816 191.41 387.864 192.466 387.864ZM219.415 394.632C216.375 394.632 213.799 393.272 211.687 390.552C209.607 387.8 208.567 383.64 208.567 378.072C208.567 372.472 209.703 367.912 211.975 364.392C214.279 360.872 216.983 359.112 220.087 359.112C223.191 359.112 225.767 360.488 227.815 363.24C229.895 365.992 230.935 370.136 230.935 375.672C230.935 381.208 229.783 385.752 227.479 389.304C225.175 392.856 222.487 394.632 219.415 394.632ZM220.135 364.824C218.727 364.824 217.511 366.072 216.487 368.568C215.463 371.032 214.951 374.152 214.951 377.928C214.951 381.672 215.383 384.456 216.247 386.28C217.143 388.072 218.247 388.968 219.559 388.968C220.871 388.968 222.023 387.72 223.015 385.224C224.039 382.728 224.551 379.608 224.551 375.864C224.551 372.088 224.119 369.304 223.255 367.512C222.423 365.72 221.383 364.824 220.135 364.824ZM257.886 359.208L257.934 381.528C257.934 385.208 257.806 389.16 257.55 393.384L252.174 392.856C248.046 383.48 244.67 376.456 242.046 371.784C242.078 376.52 242.094 384.072 242.094 394.44L236.478 393.816C236.382 391.832 236.334 389.912 236.334 388.056C236.334 380.312 236.766 371.288 237.63 360.984L244.014 361.608C247.182 370.344 250.03 376.984 252.558 381.528C252.366 371.864 252.142 364.248 251.886 358.68L257.886 359.208Z" fill="white"/>
</g>
<g filter="url(#filter1_i_43_131)">
<path d="M158.376 407.68L158.448 407.608H160.92C162.616 407.608 163.496 407.656 163.56 407.752C163.576 407.768 163.768 409.912 164.136 414.184C164.488 418.472 164.664 420.6 164.664 420.568L168.336 414.28C170.8 410.056 172.048 407.92 172.08 407.872C172.144 407.776 172.216 407.712 172.296 407.68L172.416 407.608H174.84H177.24L177.336 407.68C177.384 407.744 177.408 407.8 177.408 407.848L177.192 408.808C176.984 408.904 176.68 408.952 176.28 408.952C175.592 408.968 175.176 409 175.032 409.048L174.912 409.12L174.888 409.144C174.84 409.192 174.264 411.432 173.16 415.864C172.056 420.312 171.512 422.536 171.528 422.536C171.608 422.616 172.088 422.656 172.968 422.656C173.352 422.656 173.568 422.712 173.616 422.824C173.648 422.872 173.624 423.056 173.544 423.376C173.48 423.68 173.416 423.864 173.352 423.928L173.28 424H172.92C171.304 423.92 169.472 423.912 167.424 423.976C166.944 423.992 166.672 423.944 166.608 423.832C166.576 423.784 166.6 423.6 166.68 423.28C166.76 422.976 166.816 422.792 166.848 422.728L166.944 422.656H167.688C168.44 422.64 168.864 422.608 168.96 422.56C169.04 422.512 169.104 422.408 169.152 422.248C169.264 421.944 169.8 419.864 170.76 416.008C171.816 411.72 172.344 409.592 172.344 409.624C172.328 409.624 170.952 411.976 168.216 416.68C165.448 421.416 164.056 423.792 164.04 423.808L163.872 423.952C163.808 423.984 163.624 424 163.32 424C162.936 424 162.728 423.952 162.696 423.856C162.664 423.776 162.456 421.424 162.072 416.8L161.496 409.792L159.984 415.84C158.976 419.824 158.472 421.872 158.472 421.984C158.472 422.08 158.48 422.136 158.496 422.152C158.624 422.488 159.136 422.656 160.032 422.656C160.256 422.656 160.384 422.712 160.416 422.824C160.448 422.872 160.424 423.056 160.344 423.376C160.28 423.68 160.216 423.864 160.152 423.928L160.08 424H159.768C158.312 423.92 156.736 423.912 155.04 423.976C154.64 423.992 154.408 423.944 154.344 423.832C154.312 423.784 154.336 423.6 154.416 423.28C154.496 422.96 154.56 422.776 154.608 422.728C154.656 422.68 154.76 422.656 154.92 422.656C156.056 422.656 156.752 422.392 157.008 421.864L160.2 409.12C160.2 409.072 160.184 409.048 160.152 409.048C160.056 409.016 159.68 408.984 159.024 408.952C158.464 408.952 158.152 408.896 158.088 408.784C158.072 408.736 158.096 408.552 158.16 408.232C158.24 407.928 158.312 407.744 158.376 407.68ZM183.227 413.416L183.707 413.392H183.731C184.083 413.408 184.395 413.488 184.667 413.632C184.939 413.76 185.179 413.936 185.387 414.16L185.579 414.352L185.723 414.232C186.107 413.864 186.523 413.768 186.971 413.944C187.195 414.024 187.347 414.16 187.427 414.352C187.491 414.528 187.475 414.84 187.379 415.288C187.299 415.64 187.051 416.632 186.635 418.264C186.059 420.6 185.763 421.816 185.747 421.912C185.683 422.36 185.675 422.672 185.723 422.848C185.755 422.928 185.803 422.992 185.867 423.04C185.915 423.088 185.987 423.112 186.083 423.112C186.195 423.112 186.283 423.096 186.347 423.064C186.651 422.84 186.963 422.112 187.283 420.88C187.363 420.576 187.427 420.408 187.475 420.376C187.507 420.344 187.699 420.328 188.051 420.328C188.403 420.328 188.603 420.344 188.651 420.376C188.683 420.408 188.699 420.472 188.699 420.568C188.699 420.664 188.659 420.856 188.579 421.144C187.987 423.16 187.147 424.2 186.059 424.264C185.243 424.312 184.587 424.032 184.091 423.424C184.011 423.328 183.939 423.224 183.875 423.112C183.843 423.016 183.819 422.968 183.803 422.968L183.635 423.112C183.075 423.608 182.523 423.936 181.979 424.096C180.939 424.448 180.003 424.288 179.171 423.616C179.075 423.536 178.987 423.448 178.907 423.352C178.667 423.112 178.467 422.824 178.307 422.488C177.827 421.512 177.731 420.368 178.019 419.056C178.387 417.312 179.219 415.872 180.515 414.736C181.379 413.984 182.283 413.544 183.227 413.416ZM183.731 414.544C183.075 414.432 182.443 414.744 181.835 415.48C181.675 415.688 181.531 415.912 181.403 416.152C181.163 416.616 180.875 417.528 180.539 418.888C180.331 419.656 180.179 420.328 180.083 420.904C180.019 421.448 180.019 421.864 180.083 422.152C180.243 422.712 180.555 423.032 181.019 423.112C181.291 423.16 181.619 423.104 182.003 422.944C182.579 422.624 183.123 422.088 183.635 421.336L183.755 421.168L184.355 418.792L184.955 416.392L184.907 416.2C184.763 415.288 184.403 414.744 183.827 414.568C183.795 414.552 183.763 414.544 183.731 414.544ZM195.197 409.024C195.421 408.944 195.653 408.952 195.893 409.048C196.101 409.128 196.253 409.264 196.349 409.456C196.429 409.632 196.405 409.968 196.277 410.464C196.229 410.672 196.125 411.112 195.965 411.784C195.629 413.016 195.469 413.624 195.485 413.608C195.485 413.64 195.829 413.656 196.517 413.656H197.549L197.621 413.728C197.717 413.792 197.717 414 197.621 414.352C197.573 414.592 197.525 414.76 197.477 414.856C197.429 414.936 197.277 414.984 197.021 415C196.909 415 196.645 415 196.229 415H195.149L195.125 415.096C194.053 419.272 193.493 421.544 193.445 421.912C193.413 422.104 193.397 422.28 193.397 422.44C193.397 422.888 193.525 423.12 193.781 423.136C193.877 423.136 193.989 423.12 194.117 423.088C194.341 423.072 194.581 422.96 194.837 422.752C195.397 422.32 195.861 421.624 196.229 420.664C196.309 420.472 196.397 420.368 196.493 420.352C196.541 420.336 196.701 420.328 196.973 420.328C197.325 420.328 197.517 420.344 197.549 420.376C197.645 420.456 197.645 420.616 197.549 420.856C197.245 421.592 196.885 422.2 196.469 422.68C195.829 423.496 195.093 424 194.261 424.192C194.133 424.224 193.925 424.24 193.637 424.24C193.349 424.24 193.149 424.224 193.037 424.192C192.589 424.064 192.229 423.872 191.957 423.616C191.701 423.36 191.517 423.048 191.405 422.68C191.373 422.552 191.357 422.336 191.357 422.032V421.576L192.173 418.312C192.717 416.168 192.989 415.072 192.989 415.024C192.989 415.008 192.653 415 191.981 415C191.277 415 190.893 414.944 190.829 414.832C190.797 414.784 190.813 414.608 190.877 414.304C190.973 413.984 191.029 413.816 191.045 413.8C191.093 413.704 191.261 413.656 191.549 413.656C191.661 413.656 191.901 413.656 192.269 413.656H193.349L193.805 411.784C194.109 410.552 194.301 409.856 194.381 409.696C194.525 409.376 194.797 409.152 195.197 409.024ZM203.166 407.488C204.414 407.392 205.03 407.344 205.014 407.344C205.158 407.344 205.254 407.4 205.302 407.512C205.334 407.592 205.062 408.76 204.486 411.016L203.622 414.424L203.694 414.376C204.03 414.12 204.334 413.928 204.606 413.8C205.102 413.56 205.654 413.424 206.262 413.392C207.142 413.36 207.846 413.56 208.374 413.992C208.726 414.264 208.974 414.664 209.118 415.192C209.15 415.336 209.166 415.6 209.166 415.984C209.166 416.4 209.158 416.664 209.142 416.776C208.966 417.688 208.534 419.104 207.846 421.024C207.59 421.712 207.438 422.184 207.39 422.44C207.342 422.84 207.39 423.064 207.534 423.112C207.726 423.176 207.95 423.136 208.206 422.992C208.702 422.688 209.118 421.944 209.454 420.76C209.534 420.504 209.614 420.368 209.694 420.352C209.742 420.336 209.91 420.328 210.198 420.328C210.55 420.328 210.742 420.344 210.774 420.376C210.87 420.44 210.87 420.608 210.774 420.88C210.598 421.504 210.334 422.088 209.982 422.632C209.342 423.592 208.614 424.128 207.798 424.24C207.51 424.304 207.214 424.288 206.91 424.192C206.446 424.096 206.094 423.88 205.854 423.544C205.55 423.176 205.398 422.744 205.398 422.248C205.398 421.944 205.518 421.448 205.758 420.76C206.542 418.648 206.982 417.152 207.078 416.272C207.142 415.888 207.134 415.528 207.054 415.192C206.942 414.872 206.782 414.672 206.574 414.592C206.414 414.512 206.166 414.496 205.83 414.544C204.774 414.704 203.862 415.504 203.094 416.944L202.926 417.256L202.158 420.304C201.646 422.352 201.358 423.432 201.294 423.544C201.022 423.976 200.646 424.216 200.166 424.264C199.702 424.264 199.414 424.072 199.302 423.688C199.27 423.608 199.254 423.536 199.254 423.472C199.254 423.36 199.822 421.024 200.958 416.464C202.142 411.728 202.702 409.288 202.638 409.144C202.526 409.032 202.182 408.968 201.606 408.952C201.222 408.952 200.998 408.896 200.934 408.784L200.91 408.712L201.03 408.232C201.094 407.928 201.158 407.744 201.222 407.68C201.27 407.632 201.318 407.608 201.366 407.608L203.166 407.488Z" fill="white"/>
</g>
<g filter="url(#filter2_d_43_131)">
<line x1="202.811" y1="287.635" x2="224.818" y2="295.18" stroke="white" stroke-width="5"/>
<path d="M202.586 281.976C202.586 294.927 191.877 305.476 178.605 305.476C165.334 305.476 154.624 294.927 154.624 281.976C154.624 269.024 165.334 258.476 178.605 258.476C191.877 258.476 202.586 269.024 202.586 281.976Z" fill="white" stroke="black" stroke-width="3"/>
<path d="M190.354 219C190.354 226.18 184.534 232 177.354 232C170.175 232 164.354 226.18 164.354 219C164.354 211.82 170.175 206 177.354 206C184.534 206 190.354 211.82 190.354 219Z" fill="white" stroke="black" stroke-width="4"/>
<circle cx="134" cy="326" r="13.5" fill="white" stroke="black" stroke-width="3"/>
<circle cx="219" cy="331" r="13.5" fill="white" stroke="black" stroke-width="3"/>
<circle cx="233.521" cy="297.542" r="8.5" fill="white" stroke="black" stroke-width="3"/>
<line x1="177.486" y1="256.976" x2="177.486" y2="233.819" stroke="white" stroke-width="5"/>
<line x1="160.218" y1="298.768" x2="143.768" y2="315.218" stroke="white" stroke-width="5"/>
<line x1="194.941" y1="301.425" x2="209.599" y2="319.491" stroke="white" stroke-width="5"/>
</g>
<g filter="url(#filter3_d_43_131)">
<path d="M113.917 365.4C112.509 365.4 111.277 367.144 110.221 370.632C109.165 374.088 108.637 377.16 108.637 379.848C108.637 385.48 110.109 388.296 113.053 388.296C113.885 388.296 114.605 387.944 115.213 387.24C115.853 386.504 116.301 385.752 116.557 384.984C116.845 384.216 117.181 383.16 117.565 381.816L123.661 382.296C122.829 386.232 121.581 389.24 119.917 391.32C118.285 393.4 115.997 394.44 113.053 394.44C109.597 394.44 106.925 393.144 105.037 390.552C103.181 387.928 102.253 384.6 102.253 380.568C102.253 375.864 103.181 371.288 105.037 366.84C105.933 364.632 107.181 362.824 108.781 361.416C110.413 359.976 112.269 359.256 114.349 359.256C116.909 359.256 118.765 360.104 119.917 361.8C120.493 362.632 120.957 363.48 121.309 364.344C121.693 365.208 121.965 366.312 122.125 367.656C122.413 369.8 122.589 372.104 122.653 374.568L116.461 373.992C116.461 369.864 116.077 367.272 115.309 366.216C114.957 365.672 114.493 365.4 113.917 365.4ZM143.025 392.52L141.921 385.848L134.769 386.136L132.945 395.16L126.225 394.584L134.817 359.784L143.697 360.552L149.985 393.096L143.025 392.52ZM138.801 366.072L135.777 381L141.153 380.808L138.801 366.072ZM155.727 393.432C156.143 385.752 156.351 378.904 156.351 372.888C156.351 366.872 156.335 362.92 156.303 361.032C159.823 359.368 163.487 358.536 167.295 358.536C170.111 358.536 172.463 359.432 174.351 361.224C176.271 363.016 177.231 365.544 177.231 368.808C177.231 372.584 174.559 376.216 169.215 379.704C172.127 383.352 175.103 387.368 178.143 391.752L173.535 395.16C171.519 392.12 167.903 387.16 162.687 380.28C162.591 385.208 162.447 389.832 162.255 394.152L155.727 393.432ZM162.831 377.016C165.199 375.896 167.215 374.52 168.879 372.888C170.543 371.224 171.375 369.72 171.375 368.376C171.375 367.032 170.975 365.992 170.175 365.256C169.407 364.52 168.383 364.152 167.103 364.152C165.823 364.152 164.415 364.424 162.879 364.968C162.879 370.376 162.863 374.392 162.831 377.016ZM183.394 361.08C187.138 359.928 190.514 359.352 193.522 359.352C196.562 359.352 199.138 360.168 201.25 361.8C203.362 363.4 204.418 365.384 204.418 367.752C204.418 371.304 202.434 374.12 198.466 376.2C202.178 377.704 204.034 380.216 204.034 383.736C204.034 386.328 202.674 388.648 199.954 390.696C197.234 392.712 194.386 393.72 191.41 393.72C191.026 393.72 188.29 393.496 183.202 393.048C183.65 386.168 183.874 380.376 183.874 375.672C183.874 370.968 183.714 366.104 183.394 361.08ZM197.938 368.424C197.938 367.464 197.458 366.664 196.498 366.024C195.57 365.352 194.562 365.016 193.474 365.016C192.418 365.016 191.282 365.208 190.066 365.592C190.194 369.432 190.258 372.328 190.258 374.28C191.73 374.152 193.378 373.496 195.202 372.312C197.026 371.096 197.938 369.8 197.938 368.424ZM192.466 387.864C193.522 387.864 194.642 387.448 195.826 386.616C197.01 385.752 197.602 384.776 197.602 383.688C197.602 382.568 196.914 381.592 195.538 380.76C194.162 379.928 192.386 379.416 190.21 379.224C190.146 383 190.082 385.832 190.018 387.72C190.594 387.816 191.41 387.864 192.466 387.864ZM219.415 394.632C216.375 394.632 213.799 393.272 211.687 390.552C209.607 387.8 208.567 383.64 208.567 378.072C208.567 372.472 209.703 367.912 211.975 364.392C214.279 360.872 216.983 359.112 220.087 359.112C223.191 359.112 225.767 360.488 227.815 363.24C229.895 365.992 230.935 370.136 230.935 375.672C230.935 381.208 229.783 385.752 227.479 389.304C225.175 392.856 222.487 394.632 219.415 394.632ZM220.135 364.824C218.727 364.824 217.511 366.072 216.487 368.568C215.463 371.032 214.951 374.152 214.951 377.928C214.951 381.672 215.383 384.456 216.247 386.28C217.143 388.072 218.247 388.968 219.559 388.968C220.871 388.968 222.023 387.72 223.015 385.224C224.039 382.728 224.551 379.608 224.551 375.864C224.551 372.088 224.119 369.304 223.255 367.512C222.423 365.72 221.383 364.824 220.135 364.824ZM257.886 359.208L257.934 381.528C257.934 385.208 257.806 389.16 257.55 393.384L252.174 392.856C248.046 383.48 244.67 376.456 242.046 371.784C242.078 376.52 242.094 384.072 242.094 394.44L236.478 393.816C236.382 391.832 236.334 389.912 236.334 388.056C236.334 380.312 236.766 371.288 237.63 360.984L244.014 361.608C247.182 370.344 250.03 376.984 252.558 381.528C252.366 371.864 252.142 364.248 251.886 358.68L257.886 359.208Z" fill="white"/>
</g>
<g filter="url(#filter4_i_43_131)">
<path d="M158.376 407.68L158.448 407.608H160.92C162.616 407.608 163.496 407.656 163.56 407.752C163.576 407.768 163.768 409.912 164.136 414.184C164.488 418.472 164.664 420.6 164.664 420.568L168.336 414.28C170.8 410.056 172.048 407.92 172.08 407.872C172.144 407.776 172.216 407.712 172.296 407.68L172.416 407.608H174.84H177.24L177.336 407.68C177.384 407.744 177.408 407.8 177.408 407.848L177.192 408.808C176.984 408.904 176.68 408.952 176.28 408.952C175.592 408.968 175.176 409 175.032 409.048L174.912 409.12L174.888 409.144C174.84 409.192 174.264 411.432 173.16 415.864C172.056 420.312 171.512 422.536 171.528 422.536C171.608 422.616 172.088 422.656 172.968 422.656C173.352 422.656 173.568 422.712 173.616 422.824C173.648 422.872 173.624 423.056 173.544 423.376C173.48 423.68 173.416 423.864 173.352 423.928L173.28 424H172.92C171.304 423.92 169.472 423.912 167.424 423.976C166.944 423.992 166.672 423.944 166.608 423.832C166.576 423.784 166.6 423.6 166.68 423.28C166.76 422.976 166.816 422.792 166.848 422.728L166.944 422.656H167.688C168.44 422.64 168.864 422.608 168.96 422.56C169.04 422.512 169.104 422.408 169.152 422.248C169.264 421.944 169.8 419.864 170.76 416.008C171.816 411.72 172.344 409.592 172.344 409.624C172.328 409.624 170.952 411.976 168.216 416.68C165.448 421.416 164.056 423.792 164.04 423.808L163.872 423.952C163.808 423.984 163.624 424 163.32 424C162.936 424 162.728 423.952 162.696 423.856C162.664 423.776 162.456 421.424 162.072 416.8L161.496 409.792L159.984 415.84C158.976 419.824 158.472 421.872 158.472 421.984C158.472 422.08 158.48 422.136 158.496 422.152C158.624 422.488 159.136 422.656 160.032 422.656C160.256 422.656 160.384 422.712 160.416 422.824C160.448 422.872 160.424 423.056 160.344 423.376C160.28 423.68 160.216 423.864 160.152 423.928L160.08 424H159.768C158.312 423.92 156.736 423.912 155.04 423.976C154.64 423.992 154.408 423.944 154.344 423.832C154.312 423.784 154.336 423.6 154.416 423.28C154.496 422.96 154.56 422.776 154.608 422.728C154.656 422.68 154.76 422.656 154.92 422.656C156.056 422.656 156.752 422.392 157.008 421.864L160.2 409.12C160.2 409.072 160.184 409.048 160.152 409.048C160.056 409.016 159.68 408.984 159.024 408.952C158.464 408.952 158.152 408.896 158.088 408.784C158.072 408.736 158.096 408.552 158.16 408.232C158.24 407.928 158.312 407.744 158.376 407.68ZM183.227 413.416L183.707 413.392H183.731C184.083 413.408 184.395 413.488 184.667 413.632C184.939 413.76 185.179 413.936 185.387 414.16L185.579 414.352L185.723 414.232C186.107 413.864 186.523 413.768 186.971 413.944C187.195 414.024 187.347 414.16 187.427 414.352C187.491 414.528 187.475 414.84 187.379 415.288C187.299 415.64 187.051 416.632 186.635 418.264C186.059 420.6 185.763 421.816 185.747 421.912C185.683 422.36 185.675 422.672 185.723 422.848C185.755 422.928 185.803 422.992 185.867 423.04C185.915 423.088 185.987 423.112 186.083 423.112C186.195 423.112 186.283 423.096 186.347 423.064C186.651 422.84 186.963 422.112 187.283 420.88C187.363 420.576 187.427 420.408 187.475 420.376C187.507 420.344 187.699 420.328 188.051 420.328C188.403 420.328 188.603 420.344 188.651 420.376C188.683 420.408 188.699 420.472 188.699 420.568C188.699 420.664 188.659 420.856 188.579 421.144C187.987 423.16 187.147 424.2 186.059 424.264C185.243 424.312 184.587 424.032 184.091 423.424C184.011 423.328 183.939 423.224 183.875 423.112C183.843 423.016 183.819 422.968 183.803 422.968L183.635 423.112C183.075 423.608 182.523 423.936 181.979 424.096C180.939 424.448 180.003 424.288 179.171 423.616C179.075 423.536 178.987 423.448 178.907 423.352C178.667 423.112 178.467 422.824 178.307 422.488C177.827 421.512 177.731 420.368 178.019 419.056C178.387 417.312 179.219 415.872 180.515 414.736C181.379 413.984 182.283 413.544 183.227 413.416ZM183.731 414.544C183.075 414.432 182.443 414.744 181.835 415.48C181.675 415.688 181.531 415.912 181.403 416.152C181.163 416.616 180.875 417.528 180.539 418.888C180.331 419.656 180.179 420.328 180.083 420.904C180.019 421.448 180.019 421.864 180.083 422.152C180.243 422.712 180.555 423.032 181.019 423.112C181.291 423.16 181.619 423.104 182.003 422.944C182.579 422.624 183.123 422.088 183.635 421.336L183.755 421.168L184.355 418.792L184.955 416.392L184.907 416.2C184.763 415.288 184.403 414.744 183.827 414.568C183.795 414.552 183.763 414.544 183.731 414.544ZM195.197 409.024C195.421 408.944 195.653 408.952 195.893 409.048C196.101 409.128 196.253 409.264 196.349 409.456C196.429 409.632 196.405 409.968 196.277 410.464C196.229 410.672 196.125 411.112 195.965 411.784C195.629 413.016 195.469 413.624 195.485 413.608C195.485 413.64 195.829 413.656 196.517 413.656H197.549L197.621 413.728C197.717 413.792 197.717 414 197.621 414.352C197.573 414.592 197.525 414.76 197.477 414.856C197.429 414.936 197.277 414.984 197.021 415C196.909 415 196.645 415 196.229 415H195.149L195.125 415.096C194.053 419.272 193.493 421.544 193.445 421.912C193.413 422.104 193.397 422.28 193.397 422.44C193.397 422.888 193.525 423.12 193.781 423.136C193.877 423.136 193.989 423.12 194.117 423.088C194.341 423.072 194.581 422.96 194.837 422.752C195.397 422.32 195.861 421.624 196.229 420.664C196.309 420.472 196.397 420.368 196.493 420.352C196.541 420.336 196.701 420.328 196.973 420.328C197.325 420.328 197.517 420.344 197.549 420.376C197.645 420.456 197.645 420.616 197.549 420.856C197.245 421.592 196.885 422.2 196.469 422.68C195.829 423.496 195.093 424 194.261 424.192C194.133 424.224 193.925 424.24 193.637 424.24C193.349 424.24 193.149 424.224 193.037 424.192C192.589 424.064 192.229 423.872 191.957 423.616C191.701 423.36 191.517 423.048 191.405 422.68C191.373 422.552 191.357 422.336 191.357 422.032V421.576L192.173 418.312C192.717 416.168 192.989 415.072 192.989 415.024C192.989 415.008 192.653 415 191.981 415C191.277 415 190.893 414.944 190.829 414.832C190.797 414.784 190.813 414.608 190.877 414.304C190.973 413.984 191.029 413.816 191.045 413.8C191.093 413.704 191.261 413.656 191.549 413.656C191.661 413.656 191.901 413.656 192.269 413.656H193.349L193.805 411.784C194.109 410.552 194.301 409.856 194.381 409.696C194.525 409.376 194.797 409.152 195.197 409.024ZM203.166 407.488C204.414 407.392 205.03 407.344 205.014 407.344C205.158 407.344 205.254 407.4 205.302 407.512C205.334 407.592 205.062 408.76 204.486 411.016L203.622 414.424L203.694 414.376C204.03 414.12 204.334 413.928 204.606 413.8C205.102 413.56 205.654 413.424 206.262 413.392C207.142 413.36 207.846 413.56 208.374 413.992C208.726 414.264 208.974 414.664 209.118 415.192C209.15 415.336 209.166 415.6 209.166 415.984C209.166 416.4 209.158 416.664 209.142 416.776C208.966 417.688 208.534 419.104 207.846 421.024C207.59 421.712 207.438 422.184 207.39 422.44C207.342 422.84 207.39 423.064 207.534 423.112C207.726 423.176 207.95 423.136 208.206 422.992C208.702 422.688 209.118 421.944 209.454 420.76C209.534 420.504 209.614 420.368 209.694 420.352C209.742 420.336 209.91 420.328 210.198 420.328C210.55 420.328 210.742 420.344 210.774 420.376C210.87 420.44 210.87 420.608 210.774 420.88C210.598 421.504 210.334 422.088 209.982 422.632C209.342 423.592 208.614 424.128 207.798 424.24C207.51 424.304 207.214 424.288 206.91 424.192C206.446 424.096 206.094 423.88 205.854 423.544C205.55 423.176 205.398 422.744 205.398 422.248C205.398 421.944 205.518 421.448 205.758 420.76C206.542 418.648 206.982 417.152 207.078 416.272C207.142 415.888 207.134 415.528 207.054 415.192C206.942 414.872 206.782 414.672 206.574 414.592C206.414 414.512 206.166 414.496 205.83 414.544C204.774 414.704 203.862 415.504 203.094 416.944L202.926 417.256L202.158 420.304C201.646 422.352 201.358 423.432 201.294 423.544C201.022 423.976 200.646 424.216 200.166 424.264C199.702 424.264 199.414 424.072 199.302 423.688C199.27 423.608 199.254 423.536 199.254 423.472C199.254 423.36 199.822 421.024 200.958 416.464C202.142 411.728 202.702 409.288 202.638 409.144C202.526 409.032 202.182 408.968 201.606 408.952C201.222 408.952 200.998 408.896 200.934 408.784L200.91 408.712L201.03 408.232C201.094 407.928 201.158 407.744 201.222 407.68C201.27 407.632 201.318 407.608 201.366 407.608L203.166 407.488Z" fill="white"/>
</g>
<g filter="url(#filter5_d_43_131)">
<line x1="202.811" y1="287.635" x2="224.818" y2="295.18" stroke="white" stroke-width="5"/>
<path d="M202.586 281.976C202.586 294.927 191.877 305.476 178.605 305.476C165.334 305.476 154.624 294.927 154.624 281.976C154.624 269.024 165.334 258.476 178.605 258.476C191.877 258.476 202.586 269.024 202.586 281.976Z" fill="white" stroke="black" stroke-width="3"/>
<path d="M190.354 219C190.354 226.18 184.534 232 177.354 232C170.175 232 164.354 226.18 164.354 219C164.354 211.82 170.175 206 177.354 206C184.534 206 190.354 211.82 190.354 219Z" fill="white" stroke="black" stroke-width="4"/>
<circle cx="134" cy="326" r="13.5" fill="white" stroke="black" stroke-width="3"/>
<circle cx="219" cy="331" r="13.5" fill="white" stroke="black" stroke-width="3"/>
<circle cx="233.521" cy="297.542" r="8.5" fill="white" stroke="black" stroke-width="3"/>
<line x1="177.486" y1="256.976" x2="177.486" y2="233.819" stroke="white" stroke-width="5"/>
<line x1="160.218" y1="298.768" x2="143.768" y2="315.218" stroke="white" stroke-width="5"/>
<line x1="194.941" y1="301.425" x2="209.599" y2="319.491" stroke="white" stroke-width="5"/>
</g>
<defs>
<filter id="filter0_d_43_131" x="98.2527" y="358.536" width="163.681" height="50.624" filterUnits="userSpaceOnUse" color-interpolation-filters="sRGB">
<feFlood flood-opacity="0" result="BackgroundImageFix"/>
<feColorMatrix in="SourceAlpha" type="matrix" values="0 0 0 0 0 0 0 0 0 0 0 0 0 0 0 0 0 0 127 0" result="hardAlpha"/>
<feOffset dy="10"/>
<feGaussianBlur stdDeviation="2"/>
<feComposite in2="hardAlpha" operator="out"/>
<feColorMatrix type="matrix" values="0 0 0 0 0 0 0 0 0 0 0 0 0 0 0 0 0 0 1 0"/>
<feBlend mode="normal" in2="BackgroundImageFix" result="effect1_dropShadow_43_131"/>
<feBlend mode="normal" in="SourceGraphic" in2="effect1_dropShadow_43_131" result="shape"/>
</filter>
<filter id="filter1_i_43_131" x="154.296" y="407.344" width="56.6216" height="21.28" filterUnits="userSpaceOnUse" color-interpolation-filters="sRGB">
<feFlood flood-opacity="0" result="BackgroundImageFix"/>
<feBlend mode="normal" in="SourceGraphic" in2="BackgroundImageFix" result="shape"/>
<feColorMatrix in="SourceAlpha" type="matrix" values="0 0 0 0 0 0 0 0 0 0 0 0 0 0 0 0 0 0 127 0" result="hardAlpha"/>
<feOffset dy="10"/>
<feGaussianBlur stdDeviation="2"/>
<feComposite in2="hardAlpha" operator="arithmetic" k2="-1" k3="1"/>
<feColorMatrix type="matrix" values="0 0 0 0 0 0 0 0 0 0 0 0 0 0 0 0 0 0 0.25 0"/>
<feBlend mode="normal" in2="shape" result="effect1_innerShadow_43_131"/>
</filter>
<filter id="filter2_d_43_131" x="117" y="204" width="132.521" height="156" filterUnits="userSpaceOnUse" color-interpolation-filters="sRGB">
<feFlood flood-opacity="0" result="BackgroundImageFix"/>
<feColorMatrix in="SourceAlpha" type="matrix" values="0 0 0 0 0 0 0 0 0 0 0 0 0 0 0 0 0 0 127 0" result="hardAlpha"/>
<feOffset dx="2" dy="10"/>
<feGaussianBlur stdDeviation="2"/>
<feComposite in2="hardAlpha" operator="out"/>
<feColorMatrix type="matrix" values="0 0 0 0 0 0 0 0 0 0 0 0 0 0 0 0 0 0 1 0"/>
<feBlend mode="normal" in2="BackgroundImageFix" result="effect1_dropShadow_43_131"/>
<feBlend mode="normal" in="SourceGraphic" in2="effect1_dropShadow_43_131" result="shape"/>
</filter>
<filter id="filter3_d_43_131" x="98.2527" y="358.536" width="163.681" height="50.624" filterUnits="userSpaceOnUse" color-interpolation-filters="sRGB">
<feFlood flood-opacity="0" result="BackgroundImageFix"/>
<feColorMatrix in="SourceAlpha" type="matrix" values="0 0 0 0 0 0 0 0 0 0 0 0 0 0 0 0 0 0 127 0" result="hardAlpha"/>
<feOffset dy="10"/>
<feGaussianBlur stdDeviation="2"/>
<feComposite in2="hardAlpha" operator="out"/>
<feColorMatrix type="matrix" values="0 0 0 0 0 0 0 0 0 0 0 0 0 0 0 0 0 0 1 0"/>
<feBlend mode="normal" in2="BackgroundImageFix" result="effect1_dropShadow_43_131"/>
<feBlend mode="normal" in="SourceGraphic" in2="effect1_dropShadow_43_131" result="shape"/>
</filter>
<filter id="filter4_i_43_131" x="154.296" y="407.344" width="56.6216" height="21.28" filterUnits="userSpaceOnUse" color-interpolation-filters="sRGB">
<feFlood flood-opacity="0" result="BackgroundImageFix"/>
<feBlend mode="normal" in="SourceGraphic" in2="BackgroundImageFix" result="shape"/>
<feColorMatrix in="SourceAlpha" type="matrix" values="0 0 0 0 0 0 0 0 0 0 0 0 0 0 0 0 0 0 127 0" result="hardAlpha"/>
<feOffset dy="10"/>
<feGaussianBlur stdDeviation="2"/>
<feComposite in2="hardAlpha" operator="arithmetic" k2="-1" k3="1"/>
<feColorMatrix type="matrix" values="0 0 0 0 0 0 0 0 0 0 0 0 0 0 0 0 0 0 0.25 0"/>
<feBlend mode="normal" in2="shape" result="effect1_innerShadow_43_131"/>
</filter>
<filter id="filter5_d_43_131" x="117" y="204" width="132.521" height="156" filterUnits="userSpaceOnUse" color-interpolation-filters="sRGB">
<feFlood flood-opacity="0" result="BackgroundImageFix"/>
<feColorMatrix in="SourceAlpha" type="matrix" values="0 0 0 0 0 0 0 0 0 0 0 0 0 0 0 0 0 0 127 0" result="hardAlpha"/>
<feOffset dx="2" dy="10"/>
<feGaussianBlur stdDeviation="2"/>
<feComposite in2="hardAlpha" operator="out"/>
<feColorMatrix type="matrix" values="0 0 0 0 0 0 0 0 0 0 0 0 0 0 0 0 0 0 1 0"/>
<feBlend mode="normal" in2="BackgroundImageFix" result="effect1_dropShadow_43_131"/>
<feBlend mode="normal" in="SourceGraphic" in2="effect1_dropShadow_43_131" result="shape"/>
</filter>
</defs>
</svg>
