<svg width="21" height="21" viewBox="0 0 21 21" fill="none" xmlns="http://www.w3.org/2000/svg">
<path d="M12.9323 0.917739C12.1257 1.28793 11.7591 1.58409 12.1257 1.58409C12.4923 1.65813 12.3457 2.10236 11.9058 2.69467C11.3192 3.43506 11.2459 3.8793 11.8325 4.24949C12.2724 4.47161 12.419 4.98988 12.2724 5.212C12.1257 5.50816 12.7856 6.10047 13.7388 6.61874C14.6919 7.06297 15.4984 7.13701 15.4984 6.76682C15.4984 6.39662 16.0117 6.10047 16.5982 6.10047C17.6247 6.10047 18.0646 4.76777 17.698 2.39852C17.5514 1.06582 17.698 1.21389 15.865 0.695622C15.0585 0.473505 13.7388 0.547544 12.9323 0.917739ZM16.2316 3.5091C16.2316 4.10141 15.7917 4.61969 15.2052 4.61969C13.9587 4.61969 13.1522 3.58314 13.8121 2.84275C14.6919 1.95428 16.2316 2.39852 16.2316 3.5091Z" fill="#20373E"/>
<path d="M19.531 3.43506C19.531 5.212 19.751 6.5447 20.1176 6.32258C20.7774 5.87835 20.7774 0.177348 20.0442 0.177348C19.751 0.177348 19.531 1.65813 19.531 3.43506Z" fill="#20373E"/>
<path d="M7.43329 4.61972C7.43329 4.98991 7.79989 5.36011 8.16648 5.36011C8.6064 5.36011 8.89968 4.98991 8.89968 4.61972C8.89968 4.17548 8.6064 3.87933 8.16648 3.87933C7.79989 3.87933 7.43329 4.17548 7.43329 4.61972Z" fill="#20373E"/>
<path d="M5.08707 5.13798C5.6003 5.3601 6.26018 5.28606 6.48014 5.06394C6.77342 4.84183 6.3335 4.61971 5.52699 4.69375C4.72047 4.69375 4.50051 4.91586 5.08707 5.13798Z" fill="#20373E"/>
<path d="M1.861 6.47065C1.1278 7.06297 0.834525 7.58124 1.27444 7.58124C1.71436 7.58124 2.52088 7.06297 3.03411 6.47065C4.20723 5.06391 3.69399 5.06391 1.861 6.47065Z" fill="#20373E"/>
<path d="M6.70012 7.6553C6.70012 8.09954 6.04024 8.24761 5.23372 7.95146C4.13393 7.58126 3.91397 7.72934 4.20725 8.61781C4.50053 9.43224 4.20725 9.80243 3.40073 9.80243C2.59422 9.80243 2.30094 10.1726 2.59422 10.913C2.81418 11.5053 2.44758 12.3198 1.71438 12.69C0.541271 13.3563 0.541271 13.4303 1.7877 13.8746C2.81418 14.3188 2.8875 14.615 2.22762 15.4294C1.7877 16.0217 1.56774 16.54 1.86102 16.54C2.08098 16.614 2.74086 16.6881 3.2541 16.7621C3.69401 16.8361 4.06061 17.3544 3.91397 17.8727C3.76733 18.539 4.20725 18.7611 5.1604 18.465C6.11356 18.2429 6.77343 18.539 7.06671 19.3535C7.50663 20.464 7.57995 20.464 8.23983 19.2794C8.60642 18.6131 9.41294 18.1688 9.92618 18.391C10.4394 18.6131 11.0993 18.2429 11.3926 17.5765C11.6125 16.9102 12.1991 16.614 12.7123 16.9102C13.2989 17.2804 13.3722 17.0583 13.0056 16.0957C12.7123 15.2813 12.859 14.4669 13.4455 14.0967C14.252 13.6525 14.252 13.3563 13.4455 12.9121C12.9323 12.5419 12.7123 11.7274 13.0056 11.0611C13.2989 10.1726 13.0789 9.80243 12.2724 9.80243C11.6125 9.80243 11.0993 9.28416 11.0993 8.61781C11.0993 7.80338 10.6594 7.58126 9.6329 7.95146C8.82638 8.24761 8.16651 8.09954 8.16651 7.6553C8.16651 7.21107 7.87323 6.84087 7.43331 6.84087C7.06671 6.84087 6.70012 7.21107 6.70012 7.6553ZM9.92618 10.9871C12.1258 13.2082 10.8793 16.4659 7.79991 16.4659C4.86713 16.4659 3.32741 12.764 5.38036 10.6909C6.6268 9.43224 8.60642 9.58032 9.92618 10.9871Z" fill="#20373E"/>
<path d="M16.8916 8.83992C15.2052 9.28416 14.692 11.8015 16.0117 13.1342C17.4048 14.615 18.5779 14.5409 20.0443 12.838C21.1441 11.5053 21.1441 11.2832 19.8244 9.87647C19.0178 8.988 18.2846 8.39569 18.2113 8.39569C18.138 8.46973 17.5514 8.61781 16.8916 8.83992ZM18.5046 11.5053C18.4313 12.3938 17.4048 12.1717 17.1115 11.2092C16.8916 10.7649 17.1848 10.4688 17.6981 10.6169C18.138 10.839 18.5046 11.2092 18.5046 11.5053Z" fill="#20373E"/>
</svg>
