<svg width="20" height="20" viewBox="0 0 20 20" fill="none" xmlns="http://www.w3.org/2000/svg">
<path d="M9.04414 0.0250874C6.71131 0.263849 4.58557 1.26978 2.93656 2.91764C-0.978854 6.83179 -0.978854 13.1727 2.93656 17.0869C4.52305 18.6721 6.45731 19.6232 8.77061 19.952C9.23562 20.0185 10.7713 20.0146 11.2519 19.9481C13.5183 19.635 15.5073 18.6564 17.0704 17.0829C18.8835 15.255 19.8956 12.93 19.9932 10.3545C20.0948 7.57156 19.0476 4.90211 17.0664 2.91764C15.5308 1.37547 13.5848 0.400845 11.3887 0.0759716C10.912 0.00551605 9.52478 -0.0257969 9.04414 0.0250874ZM11.4473 1.50463C13.2604 1.83342 14.8039 2.63974 16.0778 3.91575C17.7151 5.55578 18.5982 7.68899 18.5982 10.0022C18.5982 12.3155 17.7151 14.4487 16.0778 16.0887C14.4405 17.7288 12.3109 18.6134 10.0015 18.6134C7.69602 18.6134 5.55856 17.7249 3.92519 16.0887C2.63177 14.7932 1.83071 13.2314 1.49466 11.3526C1.39697 10.7929 1.39697 9.21159 1.49466 8.65187C1.83071 6.77308 2.63177 5.21133 3.92519 3.91575C5.3202 2.5184 7.00828 1.70034 9.04414 1.43027C9.52478 1.36764 10.9354 1.41069 11.4473 1.50463Z" fill="black"/>
<path d="M9.48183 4.9961C8.80972 5.0509 8.20014 5.31314 7.78593 5.72022C7.19588 6.29951 7.12164 7.03928 7.62181 7.3485C8.01648 7.59509 8.32909 7.52464 8.61434 7.12931C8.95039 6.6557 9.19267 6.51479 9.72019 6.48739C10.5486 6.44042 11.0566 6.81618 11.0097 7.43461C10.9745 7.86517 10.8104 8.08827 10.1383 8.63234C9.45057 9.18815 9.2122 9.51302 9.05981 10.1119C8.95821 10.519 8.95821 11.2078 9.05981 11.4388C9.16531 11.6697 9.31771 11.7402 9.71238 11.7402C10.279 11.7402 10.4705 11.5601 10.4705 11.02C10.4705 10.3546 10.6502 10.0258 11.291 9.48954C12.3148 8.64408 12.7798 7.7634 12.6587 6.90229C12.4751 5.62236 11.1934 4.85127 9.48183 4.9961Z" fill="black"/>
<path d="M9.39584 12.7108C8.69638 12.9692 8.48927 13.8459 8.99726 14.3783C9.39584 14.7971 10.0054 14.7932 10.4118 14.3744C11.0292 13.7363 10.6306 12.7187 9.74752 12.6756C9.61857 12.6717 9.46227 12.6874 9.39584 12.7108Z" fill="black"/>
</svg>
