<svg width="21" height="21" viewBox="0 0 21 21" fill="none" xmlns="http://www.w3.org/2000/svg">
<path d="M4.75236 3.18253C0.418903 7.98529 0.190826 8.46557 1.02711 9.98645C2.01544 11.8275 4.14416 10.0665 3.53595 7.98529C3.23185 6.94469 3.76403 5.66396 5.36057 4.06304C7.18518 2.06188 8.24954 1.66165 11.1385 1.66165C14.0275 1.66165 15.0919 2.06188 16.9165 3.98299C20.1095 7.34492 20.1095 12.7881 16.9165 16.15C14.1035 19.1117 9.08583 19.4319 5.89275 16.7904C3.00377 14.389 2.62365 15.4296 5.4366 17.9911C8.09749 20.3124 12.1269 20.7126 15.3199 19.0317C17.9048 17.6709 20.6417 13.1082 20.6417 10.0665C20.6417 7.02474 17.9048 2.46211 15.3199 1.10133C14.2556 0.541008 12.1269 0.06073 10.4543 0.06073C8.02147 0.06073 7.03313 0.621054 4.75236 3.18253Z" fill="#20373E"/>
<path d="M9.99811 7.34491C9.99811 10.7068 12.1268 13.5885 14.5596 13.5885C15.2439 13.5885 14.8637 13.0282 13.6473 11.9876C11.9748 10.7068 11.5186 9.66624 11.5186 7.18481C11.5186 5.50385 11.2145 4.06302 10.7584 4.06302C10.3782 4.06302 9.99811 5.50385 9.99811 7.34491Z" fill="#20373E"/>
</svg>
