<svg width="71" height="25" viewBox="0 0 71 25" fill="none" xmlns="http://www.w3.org/2000/svg">
<path d="M29.5982 20V9.81818H30.8311V14.3523H36.2601V9.81818H37.493V20H36.2601V15.446H30.8311V20H29.5982ZM48.6923 14.9091C48.6923 15.983 48.4984 16.911 48.1107 17.6932C47.7229 18.4754 47.1909 19.0786 46.5148 19.5028C45.8386 19.9271 45.0664 20.1392 44.198 20.1392C43.3297 20.1392 42.5574 19.9271 41.8813 19.5028C41.2051 19.0786 40.6732 18.4754 40.2854 17.6932C39.8976 16.911 39.7037 15.983 39.7037 14.9091C39.7037 13.8352 39.8976 12.9072 40.2854 12.125C40.6732 11.3428 41.2051 10.7396 41.8813 10.3153C42.5574 9.8911 43.3297 9.67898 44.198 9.67898C45.0664 9.67898 45.8386 9.8911 46.5148 10.3153C47.1909 10.7396 47.7229 11.3428 48.1107 12.125C48.4984 12.9072 48.6923 13.8352 48.6923 14.9091ZM47.4992 14.9091C47.4992 14.0275 47.3517 13.2834 47.0567 12.6768C46.765 12.0703 46.369 11.6113 45.8685 11.2997C45.3713 10.9882 44.8145 10.8324 44.198 10.8324C43.5815 10.8324 43.0231 10.9882 42.5226 11.2997C42.0254 11.6113 41.6294 12.0703 41.3344 12.6768C41.0427 13.2834 40.8969 14.0275 40.8969 14.9091C40.8969 15.7907 41.0427 16.5348 41.3344 17.1413C41.6294 17.7479 42.0254 18.2069 42.5226 18.5185C43.0231 18.83 43.5815 18.9858 44.198 18.9858C44.8145 18.9858 45.3713 18.83 45.8685 18.5185C46.369 18.2069 46.765 17.7479 47.0567 17.1413C47.3517 16.5348 47.4992 15.7907 47.4992 14.9091ZM50.9055 9.81818H52.3771L55.8373 18.2699H55.9566L59.4169 9.81818H60.8884V20H59.735V12.2642H59.6356L56.4538 20H55.3402L52.1583 12.2642H52.0589V20H50.9055V9.81818ZM63.5006 20V9.81818H69.6455V10.9119H64.7335V14.3523H69.3273V15.446H64.7335V18.9062H69.725V20H63.5006Z" fill="white"/>
<g clip-path="url(#clip0_167_2)">
<rect width="25" height="25" fill="#546A71"/>
<path d="M23.9847 12.7819C23.9562 12.7262 23.9166 12.6569 23.8646 12.5735C23.839 12.7985 23.76 13.0402 23.5862 13.2618C23.3397 13.5759 23.0087 13.7134 22.7383 13.772C22.6554 13.7981 22.6043 13.8338 22.5551 13.8902C22.4884 13.9667 22.3907 14.1238 22.2973 14.443C22.2703 14.5355 22.2451 14.6364 22.2216 14.7464C22.4381 14.4079 22.7156 14.0735 23.07 13.852L23.1103 13.8268L23.1528 13.8055C23.3823 13.6908 23.6093 13.4876 23.7768 13.2447C23.9062 13.0571 23.9664 12.8962 23.9889 12.7902C23.9875 12.7875 23.9861 12.7847 23.9847 12.7819ZM1.93001 13.852C2.24535 14.0491 2.49986 14.3356 2.70463 14.6348C2.69933 14.611 2.69398 14.5875 2.68857 14.5643C2.59324 14.1549 2.48918 13.8722 2.39758 13.6979C2.36781 13.6413 2.34452 13.6056 2.32955 13.585C1.9958 13.4222 1.74527 13.1297 1.64491 12.7522C1.5558 12.4171 1.6072 12.0985 1.67071 11.8676C1.5315 12.0828 1.42132 12.2758 1.33702 12.4494C1.0779 12.9829 1.13621 13.1783 1.15841 13.2339C1.19607 13.3282 1.33728 13.5287 1.87629 13.8207L1.90364 13.8355L1.93001 13.852ZM24.0225 12.8655C24.0226 12.8656 24.0219 12.8632 24.0201 12.8584C24.0215 12.863 24.0224 12.8655 24.0225 12.8655Z" fill="white" stroke="white" stroke-width="2"/>
</g>
<defs>
<clipPath id="clip0_167_2">
<rect width="25" height="25" fill="white"/>
</clipPath>
</defs>
</svg>
