<svg width="20" height="20" viewBox="0 0 20 20" fill="none" xmlns="http://www.w3.org/2000/svg">
<path d="M8.08286 0.111113C7.10849 0.310421 6.40782 0.551687 5.51008 0.981773C4.40433 1.51676 3.86788 1.8944 2.92635 2.78604C1.09803 4.52737 0.134606 6.59388 0.0141774 9.05901C-0.106251 11.4297 0.539682 13.5067 1.98482 15.3215C2.29136 15.7201 2.59791 16.1082 2.65265 16.1712C2.71834 16.2551 2.54317 16.7481 2.13809 17.6188C1.44837 19.0874 1.36078 19.5699 1.75491 19.8322C1.88629 19.9266 2.1162 20 2.25852 20C2.40084 20 3.30953 19.6433 4.29485 19.2133L6.06843 18.4265L6.61583 18.6258C7.92959 19.1084 10.1958 19.2972 11.6519 19.0454C15.8669 18.3321 19.2389 15.0697 19.9177 11.0416C20.0819 10.0031 19.9943 8.10443 19.7097 7.14985C18.7243 3.70915 16.0421 1.1601 12.4073 0.216011C11.5096 -0.0147667 9.01344 -0.0777054 8.08286 0.111113ZM12.4073 1.53774C16.2172 2.68114 18.7024 5.8491 18.7024 9.58351C18.7024 13.4333 15.6698 16.9474 11.6738 17.7342C10.1192 18.0384 8.78354 17.944 7.0647 17.409C6.03559 17.0943 5.83852 17.1153 4.44812 17.7342C3.88977 17.9859 3.41901 18.1538 3.39711 18.1118C3.37522 18.0594 3.4847 17.7971 3.62702 17.5139C3.78029 17.2412 3.95546 16.8216 4.0321 16.5908C4.19632 16.0558 4.04305 15.6991 3.26574 14.8075C1.86439 13.2235 1.18562 11.1885 1.32794 9.05901C1.40458 7.88414 1.62354 7.07642 2.12714 6.0589C3.33143 3.60426 5.51008 1.94685 8.30183 1.3699C9.34189 1.1601 11.422 1.24402 12.4073 1.53774Z" fill="white"/>
<path d="M9.528 4.49592C9.33093 4.63229 9.10102 4.92601 9.00249 5.16728C8.57552 6.24774 9.62653 7.34918 10.7432 7.00302C11.9475 6.61489 12.1665 5.08336 11.1155 4.47495C10.6447 4.19172 9.97687 4.20221 9.528 4.49592Z" fill="white"/>
<path d="M7.4917 7.98907C7.39317 8.23034 7.5355 8.46112 7.82014 8.51357C7.96247 8.54503 8.20332 8.58699 8.3566 8.61846C8.50987 8.64993 8.67409 8.75483 8.70693 8.83875C8.73978 8.93316 8.58651 9.95068 8.36754 11.1151C7.92962 13.4648 7.89678 13.9893 8.14858 14.4509C8.53177 15.1747 10.3601 15.4789 11.4877 14.9963C11.9475 14.797 12.5716 14.2306 12.5716 14.0103C12.5716 13.8215 12.265 13.8005 11.9256 13.9578C11.5096 14.1676 10.9951 14.1676 10.8199 13.9683C10.6228 13.7375 10.6447 13.5068 11.1921 10.8318C11.6957 8.39818 11.7067 8.15691 11.3235 7.91564C11.2578 7.87368 10.382 7.83172 9.38571 7.83172C7.86394 7.83172 7.54644 7.8527 7.4917 7.98907Z" fill="white"/>
</svg>
