<svg width="20" height="20" viewBox="0 0 20 20" fill="none" xmlns="http://www.w3.org/2000/svg">
<g clip-path="url(#clip0_58_303)">
<rect width="20" height="20" fill="#546A71"/>
<path d="M0.545468 9.89284L0.681832 19.8214H10H19.3182L19.4546 9.89284L19.5455 -1.90735e-05H10H0.454559L0.545468 9.89284ZM18.6364 9.64284V18.2143H10H1.36365V9.64284V1.07141H10H18.6364V9.64284Z" fill="#20373E"/>
<path d="M3.18182 4.64285V6.78571H10H16.8182V4.64285V2.49999H10H3.18182V4.64285ZM15.2273 4.64285V5.53571L10.0909 5.64285C5.86364 5.71428 4.95455 5.64285 4.72728 5.17856C4.59091 4.89285 4.59091 4.39285 4.72728 4.10713C4.95455 3.64285 5.86364 3.57142 10.0909 3.64285L15.2273 3.74999V4.64285Z" fill="#20373E"/>
<path d="M4.22729 8.8214C3.22729 9.10712 3.54547 10.3571 4.54547 10.3571C5.13638 10.3571 5.45456 10.1071 5.45456 9.67855C5.45456 8.89283 5.04547 8.60712 4.22729 8.8214Z" fill="#20373E"/>
<path d="M7.86364 8.8214C6.86364 9.10712 7.18182 10.3571 8.18182 10.3571C8.77273 10.3571 9.09091 10.1071 9.09091 9.67855C9.09091 8.89283 8.68182 8.60712 7.86364 8.8214Z" fill="#20373E"/>
<path d="M11.5 8.8214C10.5 9.10712 10.8182 10.3571 11.8182 10.3571C12.4091 10.3571 12.7273 10.1071 12.7273 9.67855C12.7273 8.89283 12.3182 8.60712 11.5 8.8214Z" fill="#20373E"/>
<path d="M15.1364 8.8214C14.1364 9.10712 14.4546 10.3571 15.4546 10.3571C16.0455 10.3571 16.3636 10.1071 16.3636 9.67855C16.3636 8.89283 15.9546 8.60712 15.1364 8.8214Z" fill="#20373E"/>
<path d="M4.22729 11.6786C3.22729 11.9643 3.54547 13.2143 4.54547 13.2143C5.13638 13.2143 5.45456 12.9643 5.45456 12.5357C5.45456 11.75 5.04547 11.4643 4.22729 11.6786Z" fill="#20373E"/>
<path d="M7.86364 11.6786C6.86364 11.9643 7.18182 13.2143 8.18182 13.2143C8.77273 13.2143 9.09091 12.9643 9.09091 12.5357C9.09091 11.75 8.68182 11.4643 7.86364 11.6786Z" fill="#20373E"/>
<path d="M11.5 11.6786C10.5 11.9643 10.8182 13.2143 11.8182 13.2143C12.4091 13.2143 12.7273 12.9643 12.7273 12.5357C12.7273 11.75 12.3182 11.4643 11.5 11.6786Z" fill="#20373E"/>
<path d="M14.5455 12.3214C13.9091 13.5714 14.6818 16.2143 15.5909 15.9643C16.4091 15.75 16.5 12.8214 15.7273 11.9643C15.0909 11.2857 15.0455 11.2857 14.5455 12.3214Z" fill="#20373E"/>
<path d="M4.22729 14.5357C3.22729 14.8214 3.54547 16.0714 4.54547 16.0714C5.13638 16.0714 5.45456 15.8214 5.45456 15.3928C5.45456 14.6071 5.04547 14.3214 4.22729 14.5357Z" fill="#20373E"/>
<path d="M7.86364 14.5357C6.86364 14.8214 7.18182 16.0714 8.18182 16.0714C8.77273 16.0714 9.09091 15.8214 9.09091 15.3928C9.09091 14.6071 8.68182 14.3214 7.86364 14.5357Z" fill="#20373E"/>
<path d="M11.5 14.5357C10.5 14.8214 10.8182 16.0714 11.8182 16.0714C12.4091 16.0714 12.7273 15.8214 12.7273 15.3928C12.7273 14.6071 12.3182 14.3214 11.5 14.5357Z" fill="#20373E"/>
</g>
<defs>
<clipPath id="clip0_58_303">
<rect width="20" height="20" fill="white"/>
</clipPath>
</defs>
</svg>
