<svg width="21" height="21" viewBox="0 0 21 21" fill="none" xmlns="http://www.w3.org/2000/svg">
<path d="M12.9323 0.9178C12.1257 1.28799 11.7591 1.58415 12.1257 1.58415C12.4923 1.65819 12.3457 2.10242 11.9058 2.69474C11.3192 3.43513 11.2459 3.87936 11.8325 4.24955C12.2724 4.47167 12.419 4.98994 12.2724 5.21206C12.1257 5.50822 12.7856 6.10053 13.7388 6.6188C14.6919 7.06303 15.4984 7.13707 15.4984 6.76688C15.4984 6.39668 16.0117 6.10053 16.5982 6.10053C17.6247 6.10053 18.0646 4.76783 17.698 2.39858C17.5514 1.06588 17.698 1.21396 15.865 0.695683C15.0585 0.473566 13.7388 0.547605 12.9323 0.9178ZM16.2316 3.50916C16.2316 4.10148 15.7917 4.61975 15.2052 4.61975C13.9587 4.61975 13.1522 3.5832 13.8121 2.84281C14.6919 1.95435 16.2316 2.39858 16.2316 3.50916Z" fill="black"/>
<path d="M19.531 3.43506C19.531 5.212 19.751 6.5447 20.1176 6.32258C20.7774 5.87835 20.7774 0.177348 20.0442 0.177348C19.751 0.177348 19.531 1.65813 19.531 3.43506Z" fill="black"/>
<path d="M7.43335 4.61972C7.43335 4.98991 7.79995 5.36011 8.16655 5.36011C8.60646 5.36011 8.89974 4.98991 8.89974 4.61972C8.89974 4.17548 8.60646 3.87933 8.16655 3.87933C7.79995 3.87933 7.43335 4.17548 7.43335 4.61972Z" fill="black"/>
<path d="M5.08701 5.13798C5.60024 5.3601 6.26012 5.28606 6.48008 5.06394C6.77336 4.84183 6.33344 4.61971 5.52692 4.69375C4.72041 4.69375 4.50045 4.91586 5.08701 5.13798Z" fill="black"/>
<path d="M1.861 6.47071C1.1278 7.06303 0.834525 7.5813 1.27444 7.5813C1.71436 7.5813 2.52088 7.06303 3.03411 6.47071C4.20723 5.06397 3.69399 5.06397 1.861 6.47071Z" fill="black"/>
<path d="M6.70012 7.6553C6.70012 8.09954 6.04024 8.24761 5.23372 7.95146C4.13393 7.58126 3.91397 7.72934 4.20725 8.61781C4.50053 9.43224 4.20725 9.80243 3.40073 9.80243C2.59422 9.80243 2.30094 10.1726 2.59422 10.913C2.81418 11.5053 2.44758 12.3198 1.71438 12.69C0.541271 13.3563 0.541271 13.4303 1.7877 13.8746C2.81418 14.3188 2.8875 14.615 2.22762 15.4294C1.7877 16.0217 1.56774 16.54 1.86102 16.54C2.08098 16.614 2.74086 16.6881 3.2541 16.7621C3.69401 16.8361 4.06061 17.3544 3.91397 17.8727C3.76733 18.539 4.20725 18.7611 5.1604 18.465C6.11356 18.2429 6.77343 18.539 7.06671 19.3535C7.50663 20.464 7.57995 20.464 8.23983 19.2794C8.60642 18.6131 9.41294 18.1688 9.92618 18.391C10.4394 18.6131 11.0993 18.2429 11.3926 17.5765C11.6125 16.9102 12.1991 16.614 12.7123 16.9102C13.2989 17.2804 13.3722 17.0583 13.0056 16.0957C12.7123 15.2813 12.859 14.4669 13.4455 14.0967C14.252 13.6525 14.252 13.3563 13.4455 12.9121C12.9323 12.5419 12.7123 11.7274 13.0056 11.0611C13.2989 10.1726 13.0789 9.80243 12.2724 9.80243C11.6125 9.80243 11.0993 9.28416 11.0993 8.61781C11.0993 7.80338 10.6594 7.58126 9.6329 7.95146C8.82638 8.24761 8.16651 8.09954 8.16651 7.6553C8.16651 7.21107 7.87323 6.84087 7.43331 6.84087C7.06671 6.84087 6.70012 7.21107 6.70012 7.6553ZM9.92618 10.9871C12.1258 13.2082 10.8793 16.4659 7.79991 16.4659C4.86713 16.4659 3.32741 12.764 5.38036 10.6909C6.6268 9.43224 8.60642 9.58032 9.92618 10.9871Z" fill="black"/>
<path d="M16.8916 8.83998C15.2053 9.28422 14.692 11.8015 16.0118 13.1342C17.4049 14.615 18.578 14.541 20.0444 12.8381C21.1442 11.5054 21.1442 11.2833 19.8244 9.87653C19.0179 8.98806 18.2847 8.39575 18.2114 8.39575C18.1381 8.46979 17.5515 8.61787 16.8916 8.83998ZM18.5047 11.5054C18.4313 12.3939 17.4049 12.1717 17.1116 11.2092C16.8916 10.765 17.1849 10.4688 17.6981 10.6169C18.1381 10.839 18.5047 11.2092 18.5047 11.5054Z" fill="black"/>
</svg>
