<svg width="164" height="227" viewBox="0 0 164 227" fill="none" xmlns="http://www.w3.org/2000/svg">
<g filter="url(#filter0_d_66_455)">
<path d="M15.9167 161.4C14.5087 161.4 13.2767 163.144 12.2207 166.632C11.1647 170.088 10.6367 173.16 10.6367 175.848C10.6367 181.48 12.1087 184.296 15.0527 184.296C15.8847 184.296 16.6047 183.944 17.2127 183.24C17.8527 182.504 18.3007 181.752 18.5567 180.984C18.8447 180.216 19.1807 179.16 19.5647 177.816L25.6607 178.296C24.8287 182.232 23.5807 185.24 21.9167 187.32C20.2847 189.4 17.9967 190.44 15.0527 190.44C11.5967 190.44 8.92468 189.144 7.03668 186.552C5.18068 183.928 4.25268 180.6 4.25268 176.568C4.25268 171.864 5.18068 167.288 7.03668 162.84C7.93268 160.632 9.18068 158.824 10.7807 157.416C12.4127 155.976 14.2687 155.256 16.3487 155.256C18.9087 155.256 20.7647 156.104 21.9167 157.8C22.4927 158.632 22.9567 159.48 23.3087 160.344C23.6927 161.208 23.9647 162.312 24.1247 163.656C24.4127 165.8 24.5887 168.104 24.6527 170.568L18.4607 169.992C18.4607 165.864 18.0767 163.272 17.3087 162.216C16.9567 161.672 16.4927 161.4 15.9167 161.4ZM45.0249 188.52L43.9209 181.848L36.7689 182.136L34.9449 191.16L28.2249 190.584L36.8169 155.784L45.6969 156.552L51.9849 189.096L45.0249 188.52ZM40.8009 162.072L37.7769 177L43.1529 176.808L40.8009 162.072ZM57.7269 189.432C58.1429 181.752 58.3509 174.904 58.3509 168.888C58.3509 162.872 58.3349 158.92 58.3029 157.032C61.8229 155.368 65.4869 154.536 69.2949 154.536C72.1109 154.536 74.4629 155.432 76.3509 157.224C78.2709 159.016 79.2309 161.544 79.2309 164.808C79.2309 168.584 76.5589 172.216 71.2149 175.704C74.1269 179.352 77.1029 183.368 80.1429 187.752L75.5349 191.16C73.5189 188.12 69.9029 183.16 64.6869 176.28C64.5909 181.208 64.4469 185.832 64.2549 190.152L57.7269 189.432ZM64.8309 173.016C67.1989 171.896 69.2149 170.52 70.8789 168.888C72.5429 167.224 73.3749 165.72 73.3749 164.376C73.3749 163.032 72.9749 161.992 72.1749 161.256C71.4069 160.52 70.3829 160.152 69.1029 160.152C67.8229 160.152 66.4149 160.424 64.8789 160.968C64.8789 166.376 64.8629 170.392 64.8309 173.016ZM85.3937 157.08C89.1377 155.928 92.5137 155.352 95.5217 155.352C98.5617 155.352 101.138 156.168 103.25 157.8C105.362 159.4 106.418 161.384 106.418 163.752C106.418 167.304 104.434 170.12 100.466 172.2C104.178 173.704 106.034 176.216 106.034 179.736C106.034 182.328 104.674 184.648 101.954 186.696C99.2337 188.712 96.3857 189.72 93.4097 189.72C93.0257 189.72 90.2897 189.496 85.2017 189.048C85.6497 182.168 85.8737 176.376 85.8737 171.672C85.8737 166.968 85.7137 162.104 85.3937 157.08ZM99.9377 164.424C99.9377 163.464 99.4577 162.664 98.4977 162.024C97.5697 161.352 96.5617 161.016 95.4737 161.016C94.4177 161.016 93.2817 161.208 92.0657 161.592C92.1937 165.432 92.2577 168.328 92.2577 170.28C93.7297 170.152 95.3777 169.496 97.2017 168.312C99.0257 167.096 99.9377 165.8 99.9377 164.424ZM94.4657 183.864C95.5217 183.864 96.6417 183.448 97.8257 182.616C99.0097 181.752 99.6017 180.776 99.6017 179.688C99.6017 178.568 98.9137 177.592 97.5377 176.76C96.1617 175.928 94.3857 175.416 92.2097 175.224C92.1457 179 92.0817 181.832 92.0177 183.72C92.5937 183.816 93.4097 183.864 94.4657 183.864ZM121.415 190.632C118.375 190.632 115.799 189.272 113.687 186.552C111.607 183.8 110.567 179.64 110.567 174.072C110.567 168.472 111.703 163.912 113.975 160.392C116.279 156.872 118.983 155.112 122.087 155.112C125.191 155.112 127.767 156.488 129.815 159.24C131.895 161.992 132.935 166.136 132.935 171.672C132.935 177.208 131.783 181.752 129.479 185.304C127.175 188.856 124.487 190.632 121.415 190.632ZM122.135 160.824C120.727 160.824 119.511 162.072 118.487 164.568C117.463 167.032 116.951 170.152 116.951 173.928C116.951 177.672 117.383 180.456 118.247 182.28C119.143 184.072 120.247 184.968 121.559 184.968C122.871 184.968 124.023 183.72 125.015 181.224C126.039 178.728 126.551 175.608 126.551 171.864C126.551 168.088 126.119 165.304 125.255 163.512C124.423 161.72 123.383 160.824 122.135 160.824ZM159.886 155.208L159.934 177.528C159.934 181.208 159.806 185.16 159.55 189.384L154.174 188.856C150.046 179.48 146.67 172.456 144.046 167.784C144.078 172.52 144.094 180.072 144.094 190.44L138.478 189.816C138.382 187.832 138.334 185.912 138.334 184.056C138.334 176.312 138.766 167.288 139.63 156.984L146.014 157.608C149.182 166.344 152.03 172.984 154.558 177.528C154.366 167.864 154.142 160.248 153.886 154.68L159.886 155.208Z" fill="white"/>
</g>
<g filter="url(#filter1_i_66_455)">
<path d="M60.3763 203.68L60.4483 203.608H62.9203C64.6163 203.608 65.4963 203.656 65.5603 203.752C65.5763 203.768 65.7683 205.912 66.1363 210.184C66.4883 214.472 66.6643 216.6 66.6643 216.568L70.3363 210.28C72.8003 206.056 74.0483 203.92 74.0803 203.872C74.1443 203.776 74.2163 203.712 74.2963 203.68L74.4163 203.608H76.8403H79.2403L79.3363 203.68C79.3843 203.744 79.4083 203.8 79.4083 203.848L79.1923 204.808C78.9843 204.904 78.6803 204.952 78.2803 204.952C77.5923 204.968 77.1763 205 77.0323 205.048L76.9123 205.12L76.8883 205.144C76.8403 205.192 76.2643 207.432 75.1603 211.864C74.0563 216.312 73.5123 218.536 73.5283 218.536C73.6083 218.616 74.0883 218.656 74.9683 218.656C75.3523 218.656 75.5683 218.712 75.6163 218.824C75.6483 218.872 75.6243 219.056 75.5443 219.376C75.4803 219.68 75.4163 219.864 75.3523 219.928L75.2803 220H74.9203C73.3043 219.92 71.4723 219.912 69.4243 219.976C68.9443 219.992 68.6723 219.944 68.6083 219.832C68.5763 219.784 68.6003 219.6 68.6803 219.28C68.7603 218.976 68.8163 218.792 68.8483 218.728L68.9443 218.656H69.6883C70.4403 218.64 70.8643 218.608 70.9603 218.56C71.0403 218.512 71.1043 218.408 71.1523 218.248C71.2643 217.944 71.8003 215.864 72.7603 212.008C73.8163 207.72 74.3443 205.592 74.3443 205.624C74.3283 205.624 72.9523 207.976 70.2163 212.68C67.4483 217.416 66.0563 219.792 66.0403 219.808L65.8723 219.952C65.8083 219.984 65.6243 220 65.3203 220C64.9363 220 64.7283 219.952 64.6963 219.856C64.6643 219.776 64.4563 217.424 64.0723 212.8L63.4963 205.792L61.9843 211.84C60.9763 215.824 60.4723 217.872 60.4723 217.984C60.4723 218.08 60.4803 218.136 60.4963 218.152C60.6243 218.488 61.1363 218.656 62.0323 218.656C62.2563 218.656 62.3843 218.712 62.4163 218.824C62.4483 218.872 62.4243 219.056 62.3443 219.376C62.2803 219.68 62.2163 219.864 62.1523 219.928L62.0803 220H61.7683C60.3123 219.92 58.7363 219.912 57.0403 219.976C56.6403 219.992 56.4083 219.944 56.3443 219.832C56.3123 219.784 56.3363 219.6 56.4163 219.28C56.4963 218.96 56.5603 218.776 56.6083 218.728C56.6563 218.68 56.7603 218.656 56.9203 218.656C58.0563 218.656 58.7523 218.392 59.0083 217.864L62.2003 205.12C62.2003 205.072 62.1843 205.048 62.1523 205.048C62.0563 205.016 61.6803 204.984 61.0243 204.952C60.4643 204.952 60.1523 204.896 60.0883 204.784C60.0723 204.736 60.0963 204.552 60.1603 204.232C60.2403 203.928 60.3123 203.744 60.3763 203.68ZM85.2273 209.416L85.7073 209.392H85.7313C86.0833 209.408 86.3953 209.488 86.6673 209.632C86.9393 209.76 87.1793 209.936 87.3873 210.16L87.5793 210.352L87.7233 210.232C88.1073 209.864 88.5233 209.768 88.9713 209.944C89.1953 210.024 89.3473 210.16 89.4273 210.352C89.4913 210.528 89.4753 210.84 89.3793 211.288C89.2993 211.64 89.0513 212.632 88.6353 214.264C88.0593 216.6 87.7633 217.816 87.7473 217.912C87.6833 218.36 87.6753 218.672 87.7233 218.848C87.7553 218.928 87.8033 218.992 87.8673 219.04C87.9153 219.088 87.9873 219.112 88.0833 219.112C88.1953 219.112 88.2833 219.096 88.3473 219.064C88.6513 218.84 88.9633 218.112 89.2833 216.88C89.3633 216.576 89.4273 216.408 89.4753 216.376C89.5073 216.344 89.6993 216.328 90.0513 216.328C90.4033 216.328 90.6033 216.344 90.6513 216.376C90.6833 216.408 90.6993 216.472 90.6993 216.568C90.6993 216.664 90.6593 216.856 90.5793 217.144C89.9873 219.16 89.1473 220.2 88.0593 220.264C87.2433 220.312 86.5873 220.032 86.0913 219.424C86.0113 219.328 85.9393 219.224 85.8753 219.112C85.8433 219.016 85.8193 218.968 85.8033 218.968L85.6353 219.112C85.0753 219.608 84.5233 219.936 83.9793 220.096C82.9393 220.448 82.0033 220.288 81.1713 219.616C81.0753 219.536 80.9873 219.448 80.9073 219.352C80.6673 219.112 80.4673 218.824 80.3073 218.488C79.8273 217.512 79.7313 216.368 80.0193 215.056C80.3873 213.312 81.2193 211.872 82.5153 210.736C83.3793 209.984 84.2833 209.544 85.2273 209.416ZM85.7313 210.544C85.0753 210.432 84.4433 210.744 83.8353 211.48C83.6753 211.688 83.5313 211.912 83.4033 212.152C83.1633 212.616 82.8753 213.528 82.5393 214.888C82.3313 215.656 82.1793 216.328 82.0833 216.904C82.0193 217.448 82.0193 217.864 82.0833 218.152C82.2433 218.712 82.5553 219.032 83.0193 219.112C83.2913 219.16 83.6193 219.104 84.0033 218.944C84.5793 218.624 85.1233 218.088 85.6353 217.336L85.7553 217.168L86.3553 214.792L86.9553 212.392L86.9073 212.2C86.7633 211.288 86.4033 210.744 85.8273 210.568C85.7953 210.552 85.7633 210.544 85.7313 210.544ZM97.1972 205.024C97.4212 204.944 97.6532 204.952 97.8932 205.048C98.1012 205.128 98.2532 205.264 98.3492 205.456C98.4292 205.632 98.4052 205.968 98.2772 206.464C98.2292 206.672 98.1252 207.112 97.9652 207.784C97.6292 209.016 97.4692 209.624 97.4852 209.608C97.4852 209.64 97.8292 209.656 98.5172 209.656H99.5492L99.6212 209.728C99.7172 209.792 99.7172 210 99.6212 210.352C99.5732 210.592 99.5252 210.76 99.4772 210.856C99.4292 210.936 99.2772 210.984 99.0212 211C98.9092 211 98.6452 211 98.2292 211H97.1492L97.1252 211.096C96.0532 215.272 95.4932 217.544 95.4452 217.912C95.4132 218.104 95.3972 218.28 95.3972 218.44C95.3972 218.888 95.5252 219.12 95.7812 219.136C95.8772 219.136 95.9892 219.12 96.1172 219.088C96.3412 219.072 96.5812 218.96 96.8372 218.752C97.3972 218.32 97.8612 217.624 98.2292 216.664C98.3092 216.472 98.3972 216.368 98.4932 216.352C98.5412 216.336 98.7012 216.328 98.9732 216.328C99.3252 216.328 99.5172 216.344 99.5492 216.376C99.6452 216.456 99.6452 216.616 99.5492 216.856C99.2452 217.592 98.8852 218.2 98.4692 218.68C97.8292 219.496 97.0932 220 96.2612 220.192C96.1332 220.224 95.9252 220.24 95.6372 220.24C95.3492 220.24 95.1492 220.224 95.0372 220.192C94.5892 220.064 94.2292 219.872 93.9572 219.616C93.7012 219.36 93.5172 219.048 93.4052 218.68C93.3732 218.552 93.3572 218.336 93.3572 218.032V217.576L94.1732 214.312C94.7172 212.168 94.9892 211.072 94.9892 211.024C94.9892 211.008 94.6532 211 93.9812 211C93.2772 211 92.8932 210.944 92.8292 210.832C92.7972 210.784 92.8132 210.608 92.8772 210.304C92.9732 209.984 93.0292 209.816 93.0452 209.8C93.0932 209.704 93.2612 209.656 93.5492 209.656C93.6612 209.656 93.9012 209.656 94.2692 209.656H95.3492L95.8052 207.784C96.1092 206.552 96.3012 205.856 96.3812 205.696C96.5252 205.376 96.7972 205.152 97.1972 205.024ZM105.166 203.488C106.414 203.392 107.03 203.344 107.014 203.344C107.158 203.344 107.254 203.4 107.302 203.512C107.334 203.592 107.062 204.76 106.486 207.016L105.622 210.424L105.694 210.376C106.03 210.12 106.334 209.928 106.606 209.8C107.102 209.56 107.654 209.424 108.262 209.392C109.142 209.36 109.846 209.56 110.374 209.992C110.726 210.264 110.974 210.664 111.118 211.192C111.15 211.336 111.166 211.6 111.166 211.984C111.166 212.4 111.158 212.664 111.142 212.776C110.966 213.688 110.534 215.104 109.846 217.024C109.59 217.712 109.438 218.184 109.39 218.44C109.342 218.84 109.39 219.064 109.534 219.112C109.726 219.176 109.95 219.136 110.206 218.992C110.702 218.688 111.118 217.944 111.454 216.76C111.534 216.504 111.614 216.368 111.694 216.352C111.742 216.336 111.91 216.328 112.198 216.328C112.55 216.328 112.742 216.344 112.774 216.376C112.87 216.44 112.87 216.608 112.774 216.88C112.598 217.504 112.334 218.088 111.982 218.632C111.342 219.592 110.614 220.128 109.798 220.24C109.51 220.304 109.214 220.288 108.91 220.192C108.446 220.096 108.094 219.88 107.854 219.544C107.55 219.176 107.398 218.744 107.398 218.248C107.398 217.944 107.518 217.448 107.758 216.76C108.542 214.648 108.982 213.152 109.078 212.272C109.142 211.888 109.134 211.528 109.054 211.192C108.942 210.872 108.782 210.672 108.574 210.592C108.414 210.512 108.166 210.496 107.83 210.544C106.774 210.704 105.862 211.504 105.094 212.944L104.926 213.256L104.158 216.304C103.646 218.352 103.358 219.432 103.294 219.544C103.022 219.976 102.646 220.216 102.166 220.264C101.702 220.264 101.414 220.072 101.302 219.688C101.27 219.608 101.254 219.536 101.254 219.472C101.254 219.36 101.822 217.024 102.958 212.464C104.142 207.728 104.702 205.288 104.638 205.144C104.526 205.032 104.182 204.968 103.606 204.952C103.222 204.952 102.998 204.896 102.934 204.784L102.91 204.712L103.03 204.232C103.094 203.928 103.158 203.744 103.222 203.68C103.27 203.632 103.318 203.608 103.366 203.608L105.166 203.488Z" fill="white"/>
</g>
<g filter="url(#filter2_d_66_455)">
<line x1="104.811" y1="83.6351" x2="126.818" y2="91.1804" stroke="white" stroke-width="5"/>
<path d="M104.586 77.9756C104.586 90.9275 93.8765 101.476 80.6052 101.476C67.334 101.476 56.6245 90.9275 56.6245 77.9756C56.6245 65.0237 67.334 54.4756 80.6052 54.4756C93.8765 54.4756 104.586 65.0237 104.586 77.9756Z" fill="white" stroke="black" stroke-width="3"/>
<path d="M92.3544 15C92.3544 22.1797 86.5341 28 79.3544 28C72.1747 28 66.3544 22.1797 66.3544 15C66.3544 7.8203 72.1747 2 79.3544 2C86.5341 2 92.3544 7.8203 92.3544 15Z" fill="white" stroke="black" stroke-width="4"/>
<circle cx="36" cy="122" r="13.5" fill="white" stroke="black" stroke-width="3"/>
<circle cx="121" cy="127" r="13.5" fill="white" stroke="black" stroke-width="3"/>
<circle cx="135.521" cy="93.5425" r="8.5" fill="white" stroke="black" stroke-width="3"/>
<line x1="79.4863" y1="52.9756" x2="79.4863" y2="29.8189" stroke="white" stroke-width="5"/>
<line x1="62.2182" y1="94.7678" x2="45.7678" y2="111.218" stroke="white" stroke-width="5"/>
<line x1="96.9414" y1="97.4249" x2="111.599" y2="115.491" stroke="white" stroke-width="5"/>
</g>
<defs>
<filter id="filter0_d_66_455" x="0.252686" y="154.536" width="163.681" height="50.624" filterUnits="userSpaceOnUse" color-interpolation-filters="sRGB">
<feFlood flood-opacity="0" result="BackgroundImageFix"/>
<feColorMatrix in="SourceAlpha" type="matrix" values="0 0 0 0 0 0 0 0 0 0 0 0 0 0 0 0 0 0 127 0" result="hardAlpha"/>
<feOffset dy="10"/>
<feGaussianBlur stdDeviation="2"/>
<feComposite in2="hardAlpha" operator="out"/>
<feColorMatrix type="matrix" values="0 0 0 0 0 0 0 0 0 0 0 0 0 0 0 0 0 0 1 0"/>
<feBlend mode="normal" in2="BackgroundImageFix" result="effect1_dropShadow_66_455"/>
<feBlend mode="normal" in="SourceGraphic" in2="effect1_dropShadow_66_455" result="shape"/>
</filter>
<filter id="filter1_i_66_455" x="56.2963" y="203.344" width="56.6216" height="21.28" filterUnits="userSpaceOnUse" color-interpolation-filters="sRGB">
<feFlood flood-opacity="0" result="BackgroundImageFix"/>
<feBlend mode="normal" in="SourceGraphic" in2="BackgroundImageFix" result="shape"/>
<feColorMatrix in="SourceAlpha" type="matrix" values="0 0 0 0 0 0 0 0 0 0 0 0 0 0 0 0 0 0 127 0" result="hardAlpha"/>
<feOffset dy="10"/>
<feGaussianBlur stdDeviation="2"/>
<feComposite in2="hardAlpha" operator="arithmetic" k2="-1" k3="1"/>
<feColorMatrix type="matrix" values="0 0 0 0 0 0 0 0 0 0 0 0 0 0 0 0 0 0 0.25 0"/>
<feBlend mode="normal" in2="shape" result="effect1_innerShadow_66_455"/>
</filter>
<filter id="filter2_d_66_455" x="19" y="0" width="132.521" height="156" filterUnits="userSpaceOnUse" color-interpolation-filters="sRGB">
<feFlood flood-opacity="0" result="BackgroundImageFix"/>
<feColorMatrix in="SourceAlpha" type="matrix" values="0 0 0 0 0 0 0 0 0 0 0 0 0 0 0 0 0 0 127 0" result="hardAlpha"/>
<feOffset dx="2" dy="10"/>
<feGaussianBlur stdDeviation="2"/>
<feComposite in2="hardAlpha" operator="out"/>
<feColorMatrix type="matrix" values="0 0 0 0 0 0 0 0 0 0 0 0 0 0 0 0 0 0 1 0"/>
<feBlend mode="normal" in2="BackgroundImageFix" result="effect1_dropShadow_66_455"/>
<feBlend mode="normal" in="SourceGraphic" in2="effect1_dropShadow_66_455" result="shape"/>
</filter>
</defs>
</svg>
